<?xml version="1.0" encoding="UTF-8" standalone="no"?>
<!DOCTYPE svg PUBLIC "-//W3C//DTD SVG 1.1//EN"
 "http://www.w3.org/Graphics/SVG/1.1/DTD/svg11.dtd">
<!-- Generated by graphviz version 5.0.0 (20220707.1540)
 -->
<!-- Pages: 1 -->
<svg width="188pt" height="89pt"
 viewBox="0.00 0.00 188.00 89.00" xmlns="http://www.w3.org/2000/svg" xmlns:xlink="http://www.w3.org/1999/xlink">
<g id="graph0" class="graph" transform="scale(1 1) rotate(0) translate(4 85)">
<polygon fill="white" stroke="transparent" points="-4,4 -4,-85 184,-85 184,4 -4,4"/>
<!-- null -->
<g id="node1" class="node">
<title>null</title>
<text text-anchor="middle" x="10" y="-22.3" font-family="Times,serif" font-size="14.00"> </text>
</g>
<!-- A -->
<g id="node2" class="node">
<title>A</title>
<ellipse fill="none" stroke="black" cx="79" cy="-26" rx="22" ry="22"/>
<ellipse fill="none" stroke="black" cx="79" cy="-26" rx="26" ry="26"/>
<text text-anchor="middle" x="79" y="-22.3" font-family="Times,serif" font-size="14.00">A</text>
</g>
<!-- null&#45;&gt;A -->
<g id="edge1" class="edge">
<title>null&#45;&gt;A</title>
<path fill="none" stroke="black" d="M20.04,-26C26.91,-26 36.8,-26 46.47,-26"/>
<polygon fill="black" stroke="black" points="46.73,-29.5 56.73,-26 46.73,-22.5 46.73,-29.5"/>
</g>
<!-- A&#45;&gt;A -->
<g id="edge2" class="edge">
<title>A&#45;&gt;A</title>
<path fill="none" stroke="black" d="M71.68,-46.99C70.78,-57.09 73.22,-66 79,-66 82.7,-66 85.04,-62.34 86,-57.06"/>
<polygon fill="black" stroke="black" points="89.5,-57.1 86.32,-46.99 82.5,-56.87 89.5,-57.1"/>
<text text-anchor="middle" x="79" y="-69.8" font-family="Times,serif" font-size="14.00">0</text>
</g>
<!-- B -->
<g id="node3" class="node">
<title>B</title>
<ellipse fill="none" stroke="black" cx="162" cy="-26" rx="18" ry="18"/>
<text text-anchor="middle" x="162" y="-22.3" font-family="Times,serif" font-size="14.00">B</text>
</g>
<!-- A&#45;&gt;B -->
<g id="edge3" class="edge">
<title>A&#45;&gt;B</title>
<path fill="none" stroke="black" d="M101.28,-26C111.27,-26 123.28,-26 133.9,-26"/>
<polygon fill="black" stroke="black" points="133.94,-29.5 143.94,-26 133.94,-22.5 133.94,-29.5"/>
<text text-anchor="middle" x="122.5" y="-29.8" font-family="Times,serif" font-size="14.00">1</text>
</g>
<!-- B&#45;&gt;A -->
<g id="edge4" class="edge">
<title>B&#45;&gt;A</title>
<path fill="none" stroke="black" d="M146.69,-16.13C140.6,-12.51 133.24,-8.84 126,-7 119.51,-5.35 112.74,-6.44 106.45,-8.76"/>
<polygon fill="black" stroke="black" points="104.61,-5.76 97.08,-13.2 107.61,-12.08 104.61,-5.76"/>
<text text-anchor="middle" x="122.5" y="-10.8" font-family="Times,serif" font-size="14.00">1</text>
</g>
<!-- B&#45;&gt;B -->
<g id="edge5" class="edge">
<title>B&#45;&gt;B</title>
<path fill="none" stroke="black" d="M155.27,-43.04C153.89,-52.86 156.14,-62 162,-62 165.66,-62 167.92,-58.43 168.75,-53.35"/>
<polygon fill="black" stroke="black" points="172.25,-53.03 168.73,-43.04 165.25,-53.04 172.25,-53.03"/>
<text text-anchor="middle" x="162" y="-65.8" font-family="Times,serif" font-size="14.00">0</text>
</g>
</g>
</svg>
