<?xml version="1.0" encoding="UTF-8" standalone="no"?>
<!DOCTYPE svg PUBLIC "-//W3C//DTD SVG 1.1//EN" "http://www.w3.org/Graphics/SVG/1.1/DTD/svg11.dtd">
<!-- Generated by graphviz version 2.40.1 (20161225.0304)
 -->
<!-- Title: G Pages: 1 -->
<svg width="131pt" height="87pt" viewBox="0.00 0.00 131.00 86.80" xmlns="http://www.w3.org/2000/svg" xmlns:xlink="http://www.w3.org/1999/xlink">
<g id="graph0" class="graph" transform="scale(1 1) rotate(0) translate(4 82.8)">
<title>G</title>
<polygon fill="#ffffff" stroke="transparent" points="-4,4 -4,-82.8 127,-82.8 127,4 -4,4"/>
<!-- A -->
<g id="node1" class="node">
<title>A</title>
<ellipse fill="none" stroke="#000000" cx="22" cy="-22" rx="18" ry="18"/>
<ellipse fill="none" stroke="#000000" cx="22" cy="-22" rx="22" ry="22"/>
<text text-anchor="middle" x="22" y="-17.8" font-family="Times,serif" font-size="14.00" fill="#000000">A</text>
</g>
<!-- A&#45;&gt;A -->
<g id="edge1" class="edge">
<title>A-&gt;A</title>
<path fill="none" stroke="#000000" d="M14.3173,-42.9908C13.3688,-53.0872 15.9297,-62 22,-62 25.8888,-62 28.3373,-58.3422 29.3456,-53.0587"/>
<polygon fill="#000000" stroke="#000000" points="32.846,-53.1023 29.6827,-42.9908 25.8499,-52.868 32.846,-53.1023"/>
<text text-anchor="middle" x="22" y="-66.2" font-family="Times,serif" font-size="14.00" fill="#000000">0</text>
</g>
<!-- B -->
<g id="node2" class="node">
<title>B</title>
<ellipse fill="none" stroke="#000000" cx="105" cy="-22" rx="18" ry="18"/>
<text text-anchor="middle" x="105" y="-17.8" font-family="Times,serif" font-size="14.00" fill="#000000">B</text>
</g>
<!-- A&#45;&gt;B -->
<g id="edge2" class="edge">
<title>A-&gt;B</title>
<path fill="none" stroke="#000000" d="M44.2425,-22C54.2544,-22 66.1877,-22 76.8172,-22"/>
<polygon fill="#000000" stroke="#000000" points="76.8927,-25.5001 86.8927,-22 76.8926,-18.5001 76.8927,-25.5001"/>
<text text-anchor="middle" x="65.5" y="-26.2" font-family="Times,serif" font-size="14.00" fill="#000000">1</text>
</g>
<!-- B&#45;&gt;A -->
<g id="edge4" class="edge">
<title>B-&gt;A</title>
<path fill="none" stroke="#000000" d="M90.3655,-11.2066C84.1135,-7.2363 76.5297,-3.2189 69,-1.2 62.167,.6321 55.0585,-.6655 48.5006,-3.3301"/>
<polygon fill="#000000" stroke="#000000" points="46.6831,-.3286 39.3824,-8.0066 49.8777,-6.5572 46.6831,-.3286"/>
<text text-anchor="middle" x="65.5" y="-5.2" font-family="Times,serif" font-size="14.00" fill="#000000">1</text>
</g>
<!-- B&#45;&gt;B -->
<g id="edge3" class="edge">
<title>B-&gt;B</title>
<path fill="none" stroke="#000000" d="M98.2664,-39.0373C96.8922,-48.8579 99.1367,-58 105,-58 108.6646,-58 110.9155,-54.4289 111.7529,-49.3529"/>
<polygon fill="#000000" stroke="#000000" points="115.2524,-49.0307 111.7336,-39.0373 108.2524,-49.0439 115.2524,-49.0307"/>
<text text-anchor="middle" x="105" y="-62.2" font-family="Times,serif" font-size="14.00" fill="#000000">0</text>
</g>
</g>
</svg>