<?xml version="1.0" encoding="UTF-8" standalone="no"?>
<!DOCTYPE svg PUBLIC "-//W3C//DTD SVG 1.1//EN" "http://www.w3.org/Graphics/SVG/1.1/DTD/svg11.dtd">
<!-- Generated by graphviz version 2.40.1 (20161225.0304)
 -->
<!-- Title: G Pages: 1 -->
<svg width="224pt" height="83pt" viewBox="0.00 0.00 224.00 82.80" xmlns="http://www.w3.org/2000/svg" xmlns:xlink="http://www.w3.org/1999/xlink">
<g id="graph0" class="graph" transform="scale(1 1) rotate(0) translate(4 78.8)">
<title>G</title>
<polygon fill="#ffffff" stroke="transparent" points="-4,4 -4,-78.8 220,-78.8 220,4 -4,4"/>
<!-- C -->
<g id="node1" class="node">
<title>C</title>
<ellipse fill="none" stroke="#000000" cx="194" cy="-22" rx="18" ry="18"/>
<ellipse fill="none" stroke="#000000" cx="194" cy="-22" rx="22" ry="22"/>
<text text-anchor="middle" x="194" y="-17.8" font-family="Times,serif" font-size="14.00" fill="#000000">C</text>
</g>
<!-- A -->
<g id="node2" class="node">
<title>A</title>
<ellipse fill="none" stroke="#000000" cx="18" cy="-22" rx="18" ry="18"/>
<text text-anchor="middle" x="18" y="-17.8" font-family="Times,serif" font-size="14.00" fill="#000000">A</text>
</g>
<!-- A&#45;&gt;A -->
<g id="edge2" class="edge">
<title>A-&gt;A</title>
<path fill="none" stroke="#000000" d="M11.2664,-39.0373C9.8922,-48.8579 12.1367,-58 18,-58 21.6646,-58 23.9155,-54.4289 24.7529,-49.3529"/>
<polygon fill="#000000" stroke="#000000" points="28.2524,-49.0307 24.7336,-39.0373 21.2524,-49.0439 28.2524,-49.0307"/>
<text text-anchor="middle" x="18" y="-62.2" font-family="Times,serif" font-size="14.00" fill="#000000">0, 1</text>
</g>
<!-- B -->
<g id="node3" class="node">
<title>B</title>
<ellipse fill="none" stroke="#000000" cx="97" cy="-22" rx="18" ry="18"/>
<text text-anchor="middle" x="97" y="-17.8" font-family="Times,serif" font-size="14.00" fill="#000000">B</text>
</g>
<!-- A&#45;&gt;B -->
<g id="edge1" class="edge">
<title>A-&gt;B</title>
<path fill="none" stroke="#000000" d="M36.3228,-22C45.8947,-22 57.8223,-22 68.5629,-22"/>
<polygon fill="#000000" stroke="#000000" points="68.7766,-25.5001 78.7766,-22 68.7766,-18.5001 68.7766,-25.5001"/>
<text text-anchor="middle" x="57.5" y="-26.2" font-family="Times,serif" font-size="14.00" fill="#000000">1</text>
</g>
<!-- B&#45;&gt;C -->
<g id="edge3" class="edge">
<title>B-&gt;C</title>
<path fill="none" stroke="#000000" d="M115.245,-22C128.2652,-22 146.1291,-22 161.5521,-22"/>
<polygon fill="#000000" stroke="#000000" points="161.7501,-25.5001 171.75,-22 161.75,-18.5001 161.7501,-25.5001"/>
<text text-anchor="middle" x="143.5" y="-26.2" font-family="Times,serif" font-size="14.00" fill="#000000">0, 1</text>
</g>
</g>
</svg>