<?xml version="1.0" encoding="UTF-8" standalone="no"?>
<!DOCTYPE svg PUBLIC "-//W3C//DTD SVG 1.1//EN"
 "http://www.w3.org/Graphics/SVG/1.1/DTD/svg11.dtd">
<!-- Generated by graphviz version 5.0.0 (20220707.1540)
 -->
<!-- Pages: 1 -->
<svg width="286pt" height="85pt"
 viewBox="0.00 0.00 286.00 85.00" xmlns="http://www.w3.org/2000/svg" xmlns:xlink="http://www.w3.org/1999/xlink">
<g id="graph0" class="graph" transform="scale(1 1) rotate(0) translate(4 81)">
<polygon fill="white" stroke="transparent" points="-4,4 -4,-81 282,-81 282,4 -4,4"/>
<!-- null -->
<g id="node1" class="node">
<title>null</title>
<text text-anchor="middle" x="10" y="-22.3" font-family="Times,serif" font-size="14.00"> </text>
</g>
<!-- A -->
<g id="node2" class="node">
<title>A</title>
<ellipse fill="none" stroke="black" cx="75" cy="-26" rx="18" ry="18"/>
<text text-anchor="middle" x="75" y="-22.3" font-family="Times,serif" font-size="14.00">A</text>
</g>
<!-- null&#45;&gt;A -->
<g id="edge1" class="edge">
<title>null&#45;&gt;A</title>
<path fill="none" stroke="black" d="M20.03,-26C27.07,-26 37.25,-26 46.87,-26"/>
<polygon fill="black" stroke="black" points="46.92,-29.5 56.92,-26 46.92,-22.5 46.92,-29.5"/>
</g>
<!-- A&#45;&gt;A -->
<g id="edge2" class="edge">
<title>A&#45;&gt;A</title>
<path fill="none" stroke="black" d="M68.62,-43.04C67.32,-52.86 69.44,-62 75,-62 78.47,-62 80.6,-58.43 81.4,-53.35"/>
<polygon fill="black" stroke="black" points="84.9,-53.03 81.38,-43.04 77.9,-53.04 84.9,-53.03"/>
<text text-anchor="middle" x="75" y="-65.8" font-family="Times,serif" font-size="14.00">0, 1</text>
</g>
<!-- B -->
<g id="node3" class="node">
<title>B</title>
<ellipse fill="none" stroke="black" cx="154" cy="-26" rx="18" ry="18"/>
<text text-anchor="middle" x="154" y="-22.3" font-family="Times,serif" font-size="14.00">B</text>
</g>
<!-- A&#45;&gt;B -->
<g id="edge3" class="edge">
<title>A&#45;&gt;B</title>
<path fill="none" stroke="black" d="M93.09,-26C102.66,-26 114.82,-26 125.68,-26"/>
<polygon fill="black" stroke="black" points="125.96,-29.5 135.96,-26 125.96,-22.5 125.96,-29.5"/>
<text text-anchor="middle" x="114.5" y="-29.8" font-family="Times,serif" font-size="14.00">1</text>
</g>
<!-- C -->
<g id="node4" class="node">
<title>C</title>
<ellipse fill="none" stroke="black" cx="252" cy="-26" rx="22" ry="22"/>
<ellipse fill="none" stroke="black" cx="252" cy="-26" rx="26" ry="26"/>
<text text-anchor="middle" x="252" y="-22.3" font-family="Times,serif" font-size="14.00">C</text>
</g>
<!-- B&#45;&gt;C -->
<g id="edge4" class="edge">
<title>B&#45;&gt;C</title>
<path fill="none" stroke="black" d="M172.16,-26C185.31,-26 203.81,-26 219.58,-26"/>
<polygon fill="black" stroke="black" points="219.97,-29.5 229.97,-26 219.97,-22.5 219.97,-29.5"/>
<text text-anchor="middle" x="201" y="-29.8" font-family="Times,serif" font-size="14.00">0, 1</text>
</g>
</g>
</svg>
