<?xml version="1.0" encoding="UTF-8" standalone="no"?>
<!DOCTYPE svg PUBLIC "-//W3C//DTD SVG 1.1//EN" "http://www.w3.org/Graphics/SVG/1.1/DTD/svg11.dtd">
<!-- Generated by graphviz version 2.40.1 (20161225.0304)
 -->
<!-- Title: G Pages: 1 -->
<svg width="219pt" height="125pt" viewBox="0.00 0.00 218.78 124.80" xmlns="http://www.w3.org/2000/svg" xmlns:xlink="http://www.w3.org/1999/xlink">
<g id="graph0" class="graph" transform="scale(1 1) rotate(0) translate(4 120.8)">
<title>G</title>
<polygon fill="#ffffff" stroke="transparent" points="-4,4 -4,-120.8 214.7798,-120.8 214.7798,4 -4,4"/>
<!-- AC -->
<g id="node1" class="node">
<title>AC</title>
<ellipse fill="none" stroke="#000000" cx="101" cy="-22" rx="18" ry="18"/>
<ellipse fill="none" stroke="#000000" cx="101" cy="-22" rx="22" ry="22"/>
<text text-anchor="middle" x="101" y="-17.8" font-family="Times,serif" font-size="14.00" fill="#000000">AC</text>
</g>
<!-- A -->
<g id="node3" class="node">
<title>A</title>
<ellipse fill="none" stroke="#000000" cx="18" cy="-60" rx="18" ry="18"/>
<text text-anchor="middle" x="18" y="-55.8" font-family="Times,serif" font-size="14.00" fill="#000000">A</text>
</g>
<!-- AC&#45;&gt;A -->
<g id="edge6" class="edge">
<title>AC-&gt;A</title>
<path fill="none" stroke="#000000" d="M80.8203,-31.2389C69.6889,-36.3352 55.748,-42.7178 43.8288,-48.1748"/>
<polygon fill="#000000" stroke="#000000" points="42.0335,-45.1473 34.3981,-52.4924 44.9475,-51.5119 42.0335,-45.1473"/>
<text text-anchor="middle" x="57.5" y="-48.2" font-family="Times,serif" font-size="14.00" fill="#000000">0</text>
</g>
<!-- AB -->
<g id="node4" class="node">
<title>AB</title>
<ellipse fill="none" stroke="#000000" cx="101" cy="-98" rx="18" ry="18"/>
<text text-anchor="middle" x="101" y="-93.8" font-family="Times,serif" font-size="14.00" fill="#000000">AB</text>
</g>
<!-- AC&#45;&gt;AB -->
<g id="edge5" class="edge">
<title>AC-&gt;AB</title>
<path fill="none" stroke="#000000" d="M115.13,-39.3136C119.835,-47.1077 123.311,-56.5523 120.8,-65.5 119.9074,-68.6806 118.6082,-71.8586 117.0952,-74.9136"/>
<polygon fill="#000000" stroke="#000000" points="114.0573,-73.1756 112.1079,-83.5896 120.1261,-76.6642 114.0573,-73.1756"/>
<text text-anchor="middle" x="112.4" y="-57.8" font-family="Times,serif" font-size="14.00" fill="#000000">1</text>
</g>
<!-- ABC -->
<g id="node2" class="node">
<title>ABC</title>
<ellipse fill="none" stroke="#000000" cx="188.3899" cy="-60" rx="17.9119" ry="18"/>
<ellipse fill="none" stroke="#000000" cx="188.3899" cy="-60" rx="21.8923" ry="22"/>
<text text-anchor="middle" x="188.3899" y="-55.8" font-family="Times,serif" font-size="14.00" fill="#000000">ABC</text>
</g>
<!-- ABC&#45;&gt;AC -->
<g id="edge7" class="edge">
<title>ABC-&gt;AC</title>
<path fill="none" stroke="#000000" d="M167.9284,-51.1027C156.8351,-46.279 142.9245,-40.2302 130.6631,-34.8985"/>
<polygon fill="#000000" stroke="#000000" points="131.8349,-31.5915 121.2687,-30.8135 129.0435,-38.0109 131.8349,-31.5915"/>
<text text-anchor="middle" x="144.5" y="-47.2" font-family="Times,serif" font-size="14.00" fill="#000000">0</text>
</g>
<!-- ABC&#45;&gt;ABC -->
<g id="edge8" class="edge">
<title>ABC-&gt;ABC</title>
<path fill="none" stroke="#000000" d="M180.7072,-80.9908C179.7587,-91.0872 182.3196,-100 188.3899,-100 192.2787,-100 194.7272,-96.3422 195.7355,-91.0587"/>
<polygon fill="#000000" stroke="#000000" points="199.2359,-91.1023 196.0726,-80.9908 192.2398,-90.868 199.2359,-91.1023"/>
<text text-anchor="middle" x="188.3899" y="-104.2" font-family="Times,serif" font-size="14.00" fill="#000000">1</text>
</g>
<!-- A&#45;&gt;A -->
<g id="edge1" class="edge">
<title>A-&gt;A</title>
<path fill="none" stroke="#000000" d="M11.2664,-77.0373C9.8922,-86.8579 12.1367,-96 18,-96 21.6646,-96 23.9155,-92.4289 24.7529,-87.3529"/>
<polygon fill="#000000" stroke="#000000" points="28.2524,-87.0307 24.7336,-77.0373 21.2524,-87.0439 28.2524,-87.0307"/>
<text text-anchor="middle" x="18" y="-100.2" font-family="Times,serif" font-size="14.00" fill="#000000">0</text>
</g>
<!-- A&#45;&gt;AB -->
<g id="edge2" class="edge">
<title>A-&gt;AB</title>
<path fill="none" stroke="#000000" d="M34.3981,-67.5076C46.0311,-72.8335 61.8793,-80.0893 75.1976,-86.1868"/>
<polygon fill="#000000" stroke="#000000" points="73.8025,-89.3975 84.3518,-90.378 76.7164,-83.0328 73.8025,-89.3975"/>
<text text-anchor="middle" x="57.5" y="-83.2" font-family="Times,serif" font-size="14.00" fill="#000000">1</text>
</g>
<!-- AB&#45;&gt;AC -->
<g id="edge4" class="edge">
<title>AB-&gt;AC</title>
<path fill="none" stroke="#000000" d="M101,-79.6025C101,-72.0667 101,-63.1145 101,-54.5409"/>
<polygon fill="#000000" stroke="#000000" points="104.5001,-54.3914 101,-44.3914 97.5001,-54.3915 104.5001,-54.3914"/>
<text text-anchor="middle" x="89.6" y="-57.8" font-family="Times,serif" font-size="14.00" fill="#000000">0</text>
</g>
<!-- AB&#45;&gt;ABC -->
<g id="edge3" class="edge">
<title>AB-&gt;ABC</title>
<path fill="none" stroke="#000000" d="M117.8497,-90.6732C129.3441,-85.675 144.8852,-78.9173 158.4547,-73.0168"/>
<polygon fill="#000000" stroke="#000000" points="160.126,-76.1067 167.9009,-68.9093 157.3346,-69.6873 160.126,-76.1067"/>
<text text-anchor="middle" x="144.5" y="-84.2" font-family="Times,serif" font-size="14.00" fill="#000000">1</text>
</g>
</g>
</svg>