<?xml version="1.0" encoding="UTF-8" standalone="no"?>
<!DOCTYPE svg PUBLIC "-//W3C//DTD SVG 1.1//EN"
 "http://www.w3.org/Graphics/SVG/1.1/DTD/svg11.dtd">
<!-- Generated by graphviz version 5.0.0 (20220707.1540)
 -->
<!-- Pages: 1 -->
<svg width="260pt" height="128pt"
 viewBox="0.00 0.00 260.00 128.00" xmlns="http://www.w3.org/2000/svg" xmlns:xlink="http://www.w3.org/1999/xlink">
<g id="graph0" class="graph" transform="scale(1 1) rotate(0) translate(4 124)">
<polygon fill="white" stroke="transparent" points="-4,4 -4,-124 256,-124 256,4 -4,4"/>
<!-- null -->
<g id="node1" class="node">
<title>null</title>
<text text-anchor="middle" x="0.5" y="-60.3" font-family="Times,serif" font-size="14.00"> </text>
</g>
<!-- A -->
<g id="node4" class="node">
<title>A</title>
<ellipse fill="none" stroke="black" cx="56" cy="-64" rx="18" ry="18"/>
<text text-anchor="middle" x="56" y="-60.3" font-family="Times,serif" font-size="14.00">A</text>
</g>
<!-- null&#45;&gt;A -->
<g id="edge1" class="edge">
<title>null&#45;&gt;A</title>
<path fill="none" stroke="black" d="M1.15,-64C2.67,-64 15.1,-64 27.63,-64"/>
<polygon fill="black" stroke="black" points="27.94,-67.5 37.94,-64 27.94,-60.5 27.94,-67.5"/>
</g>
<!-- AC -->
<g id="node2" class="node">
<title>AC</title>
<ellipse fill="none" stroke="black" cx="139" cy="-26" rx="22" ry="22"/>
<ellipse fill="none" stroke="black" cx="139" cy="-26" rx="26" ry="26"/>
<text text-anchor="middle" x="139" y="-22.3" font-family="Times,serif" font-size="14.00">AC</text>
</g>
<!-- AB -->
<g id="node3" class="node">
<title>AB</title>
<ellipse fill="none" stroke="black" cx="139" cy="-102" rx="18" ry="18"/>
<text text-anchor="middle" x="139" y="-98.3" font-family="Times,serif" font-size="14.00">AB</text>
</g>
<!-- AC&#45;&gt;AB -->
<g id="edge2" class="edge">
<title>AC&#45;&gt;AB</title>
<path fill="none" stroke="black" d="M139,-48.39C139,-56.27 139,-65.24 139,-73.55"/>
<polygon fill="black" stroke="black" points="135.5,-73.6 139,-83.6 142.5,-73.6 135.5,-73.6"/>
<text text-anchor="middle" x="128.5" y="-62.3" font-family="Times,serif" font-size="14.00">1</text>
</g>
<!-- AC&#45;&gt;A -->
<g id="edge3" class="edge">
<title>AC&#45;&gt;A</title>
<path fill="none" stroke="black" d="M118.71,-35.05C107.71,-40.21 93.79,-46.74 81.96,-52.29"/>
<polygon fill="black" stroke="black" points="80.18,-49.26 72.62,-56.67 83.16,-55.59 80.18,-49.26"/>
<text text-anchor="middle" x="95.5" y="-51.8" font-family="Times,serif" font-size="14.00">0</text>
</g>
<!-- AB&#45;&gt;AC -->
<g id="edge4" class="edge">
<title>AB&#45;&gt;AC</title>
<path fill="none" stroke="black" d="M149.3,-87.14C152.41,-81.82 155.42,-75.62 157,-69.5 158.41,-64.06 157.76,-58.4 156.06,-53.04"/>
<polygon fill="black" stroke="black" points="159.25,-51.61 152.08,-43.81 152.83,-54.38 159.25,-51.61"/>
<text text-anchor="middle" x="149.5" y="-62.3" font-family="Times,serif" font-size="14.00">0</text>
</g>
<!-- ABC -->
<g id="node5" class="node">
<title>ABC</title>
<ellipse fill="none" stroke="black" cx="226" cy="-64" rx="22" ry="22"/>
<ellipse fill="none" stroke="black" cx="226" cy="-64" rx="26" ry="26"/>
<text text-anchor="middle" x="226" y="-60.3" font-family="Times,serif" font-size="14.00">ABC</text>
</g>
<!-- AB&#45;&gt;ABC -->
<g id="edge5" class="edge">
<title>AB&#45;&gt;ABC</title>
<path fill="none" stroke="black" d="M155.99,-94.85C167.29,-89.8 182.75,-82.89 196.18,-76.89"/>
<polygon fill="black" stroke="black" points="197.8,-79.99 205.5,-72.72 194.94,-73.61 197.8,-79.99"/>
<text text-anchor="middle" x="182.5" y="-88.8" font-family="Times,serif" font-size="14.00">1</text>
</g>
<!-- A&#45;&gt;AB -->
<g id="edge6" class="edge">
<title>A&#45;&gt;AB</title>
<path fill="none" stroke="black" d="M72.62,-71.33C84.16,-76.74 100.1,-84.22 113.36,-90.44"/>
<polygon fill="black" stroke="black" points="111.89,-93.62 122.43,-94.7 114.86,-87.28 111.89,-93.62"/>
<text text-anchor="middle" x="95.5" y="-86.8" font-family="Times,serif" font-size="14.00">1</text>
</g>
<!-- A&#45;&gt;A -->
<g id="edge7" class="edge">
<title>A&#45;&gt;A</title>
<path fill="none" stroke="black" d="M49.62,-81.04C48.32,-90.86 50.45,-100 56,-100 59.47,-100 61.6,-96.43 62.4,-91.35"/>
<polygon fill="black" stroke="black" points="65.9,-91.03 62.38,-81.04 58.9,-91.04 65.9,-91.03"/>
<text text-anchor="middle" x="56" y="-103.8" font-family="Times,serif" font-size="14.00">0</text>
</g>
<!-- ABC&#45;&gt;AC -->
<g id="edge8" class="edge">
<title>ABC&#45;&gt;AC</title>
<path fill="none" stroke="black" d="M205.49,-55.28C194.56,-50.39 180.71,-44.2 168.57,-38.77"/>
<polygon fill="black" stroke="black" points="169.85,-35.51 159.29,-34.62 166.99,-41.9 169.85,-35.51"/>
<text text-anchor="middle" x="182.5" y="-50.8" font-family="Times,serif" font-size="14.00">0</text>
</g>
<!-- ABC&#45;&gt;ABC -->
<g id="edge9" class="edge">
<title>ABC&#45;&gt;ABC</title>
<path fill="none" stroke="black" d="M218.32,-84.99C217.37,-95.09 219.93,-104 226,-104 229.89,-104 232.34,-100.34 233.35,-95.06"/>
<polygon fill="black" stroke="black" points="236.85,-95.1 233.68,-84.99 229.85,-94.87 236.85,-95.1"/>
<text text-anchor="middle" x="226" y="-107.8" font-family="Times,serif" font-size="14.00">1</text>
</g>
</g>
</svg>
