<?xml version="1.0" encoding="UTF-8" standalone="no"?>
<!DOCTYPE svg PUBLIC "-//W3C//DTD SVG 1.1//EN"
 "http://www.w3.org/Graphics/SVG/1.1/DTD/svg11.dtd">
<!-- Generated by graphviz version 8.1.0 (20230707.0739)
 -->
<!-- Pages: 1 -->
<svg width="345pt" height="87pt"
 viewBox="0.00 0.00 345.00 86.50" xmlns="http://www.w3.org/2000/svg" xmlns:xlink="http://www.w3.org/1999/xlink">
<g id="graph0" class="graph" transform="scale(1 1) rotate(0) translate(4 82.5)">
<polygon fill="white" stroke="none" points="-4,4 -4,-82.5 341,-82.5 341,4 -4,4"/>
<!-- null -->
<g id="node1" class="node">
<title>null</title>
<text text-anchor="middle" x="9.88" y="-16.95" font-family="Times,serif" font-size="14.00"> </text>
</g>
<!-- a -->
<g id="node2" class="node">
<title>a</title>
<ellipse fill="none" stroke="black" cx="74.75" cy="-22" rx="18" ry="18"/>
<text text-anchor="middle" x="74.75" y="-16.95" font-family="Times,serif" font-size="14.00">a</text>
</g>
<!-- null&#45;&gt;a -->
<g id="edge1" class="edge">
<title>null&#45;&gt;a</title>
<path fill="none" stroke="black" d="M19.62,-22C26.33,-22 36.01,-22 45.33,-22"/>
<polygon fill="black" stroke="black" points="45.3,-25.5 55.3,-22 45.3,-18.5 45.3,-25.5"/>
</g>
<!-- a&#45;&gt;a -->
<g id="edge4" class="edge">
<title>a&#45;&gt;a</title>
<path fill="none" stroke="black" d="M68.28,-39.04C66.96,-48.86 69.12,-58 74.75,-58 78.18,-58 80.32,-54.61 81.17,-49.73"/>
<polygon fill="black" stroke="black" points="84.68,-50.05 81.22,-40.04 77.68,-50.02 84.68,-50.05"/>
<text text-anchor="middle" x="74.75" y="-61.2" font-family="Times,serif" font-size="14.00">0</text>
</g>
<!-- b -->
<g id="node5" class="node">
<title>b</title>
<ellipse fill="none" stroke="black" cx="153.5" cy="-22" rx="18" ry="18"/>
<text text-anchor="middle" x="153.5" y="-16.95" font-family="Times,serif" font-size="14.00">b</text>
</g>
<!-- a&#45;&gt;b -->
<g id="edge5" class="edge">
<title>a&#45;&gt;b</title>
<path fill="none" stroke="black" d="M93.17,-22C102.39,-22 113.94,-22 124.4,-22"/>
<polygon fill="black" stroke="black" points="124.15,-25.5 134.15,-22 124.15,-18.5 124.15,-25.5"/>
<text text-anchor="middle" x="114.12" y="-25.2" font-family="Times,serif" font-size="14.00">1</text>
</g>
<!-- c -->
<g id="node3" class="node">
<title>c</title>
<ellipse fill="none" stroke="black" cx="236.25" cy="-22" rx="18" ry="18"/>
<ellipse fill="none" stroke="black" cx="236.25" cy="-22" rx="22" ry="22"/>
<text text-anchor="middle" x="236.25" y="-16.95" font-family="Times,serif" font-size="14.00">c</text>
</g>
<!-- c&#45;&gt;c -->
<g id="edge2" class="edge">
<title>c&#45;&gt;c</title>
<path fill="none" stroke="black" d="M228.32,-42.99C227.34,-53.09 229.98,-62 236.25,-62 240.07,-62 242.54,-58.69 243.67,-53.82"/>
<polygon fill="black" stroke="black" points="247.21,-54.14 244.18,-43.99 240.22,-53.81 247.21,-54.14"/>
<text text-anchor="middle" x="236.25" y="-65.2" font-family="Times,serif" font-size="14.00">0</text>
</g>
<!-- d -->
<g id="node4" class="node">
<title>d</title>
<ellipse fill="none" stroke="black" cx="319" cy="-22" rx="18" ry="18"/>
<text text-anchor="middle" x="319" y="-16.95" font-family="Times,serif" font-size="14.00">d</text>
</g>
<!-- c&#45;&gt;d -->
<g id="edge3" class="edge">
<title>c&#45;&gt;d</title>
<path fill="none" stroke="black" d="M258.47,-22C268.04,-22 279.49,-22 289.77,-22"/>
<polygon fill="black" stroke="black" points="289.73,-25.5 299.73,-22 289.73,-18.5 289.73,-25.5"/>
<text text-anchor="middle" x="279.62" y="-25.2" font-family="Times,serif" font-size="14.00">1</text>
</g>
<!-- d&#45;&gt;d -->
<g id="edge8" class="edge">
<title>d&#45;&gt;d</title>
<path fill="none" stroke="black" d="M312.02,-39.04C310.6,-48.86 312.92,-58 319,-58 322.7,-58 325.01,-54.61 325.93,-49.73"/>
<polygon fill="black" stroke="black" points="329.43,-50.05 325.98,-40.04 322.43,-50.02 329.43,-50.05"/>
<text text-anchor="middle" x="319" y="-61.2" font-family="Times,serif" font-size="14.00">0, 1</text>
</g>
<!-- b&#45;&gt;c -->
<g id="edge6" class="edge">
<title>b&#45;&gt;c</title>
<path fill="none" stroke="black" d="M171.62,-22C180.76,-22 192.32,-22 203.06,-22"/>
<polygon fill="black" stroke="black" points="202.83,-25.5 212.83,-22 202.83,-18.5 202.83,-25.5"/>
<text text-anchor="middle" x="192.88" y="-25.2" font-family="Times,serif" font-size="14.00">1</text>
</g>
<!-- b&#45;&gt;b -->
<g id="edge7" class="edge">
<title>b&#45;&gt;b</title>
<path fill="none" stroke="black" d="M146.52,-39.04C145.1,-48.86 147.42,-58 153.5,-58 157.2,-58 159.51,-54.61 160.43,-49.73"/>
<polygon fill="black" stroke="black" points="163.93,-50.05 160.48,-40.04 156.93,-50.02 163.93,-50.05"/>
<text text-anchor="middle" x="153.5" y="-61.2" font-family="Times,serif" font-size="14.00">0</text>
</g>
</g>
</svg>
