<?xml version="1.0" encoding="UTF-8" standalone="no"?>
<!DOCTYPE svg PUBLIC "-//W3C//DTD SVG 1.1//EN"
 "http://www.w3.org/Graphics/SVG/1.1/DTD/svg11.dtd">
<!-- Generated by graphviz version 8.1.0 (20230707.0739)
 -->
<!-- Pages: 1 -->
<svg width="323pt" height="94pt"
 viewBox="0.00 0.00 322.50 93.97" xmlns="http://www.w3.org/2000/svg" xmlns:xlink="http://www.w3.org/1999/xlink">
<g id="graph0" class="graph" transform="scale(1 1) rotate(0) translate(4 89.97)">
<polygon fill="white" stroke="none" points="-4,4 -4,-89.97 318.5,-89.97 318.5,4 -4,4"/>
<!-- null -->
<g id="node1" class="node">
<title>null</title>
<text text-anchor="middle" x="9.88" y="-24.42" font-family="Times,serif" font-size="14.00"> </text>
</g>
<!-- a -->
<g id="node2" class="node">
<title>a</title>
<ellipse fill="none" stroke="black" cx="78.75" cy="-29.47" rx="18" ry="18"/>
<ellipse fill="none" stroke="black" cx="78.75" cy="-29.47" rx="22" ry="22"/>
<text text-anchor="middle" x="78.75" y="-24.42" font-family="Times,serif" font-size="14.00">a</text>
</g>
<!-- null&#45;&gt;a -->
<g id="edge1" class="edge">
<title>null&#45;&gt;a</title>
<path fill="none" stroke="black" d="M19.62,-29.47C26.28,-29.47 35.91,-29.47 45.42,-29.47"/>
<polygon fill="black" stroke="black" points="45.34,-32.97 55.34,-29.47 45.34,-25.97 45.34,-32.97"/>
</g>
<!-- a&#45;&gt;a -->
<g id="edge2" class="edge">
<title>a&#45;&gt;a</title>
<path fill="none" stroke="black" d="M71.34,-50.46C70.43,-60.55 72.9,-69.47 78.75,-69.47 82.32,-69.47 84.63,-66.16 85.68,-61.29"/>
<polygon fill="black" stroke="black" points="89.21,-61.6 86.16,-51.46 82.22,-61.29 89.21,-61.6"/>
<text text-anchor="middle" x="78.75" y="-72.67" font-family="Times,serif" font-size="14.00">0, 5</text>
</g>
<!-- b -->
<g id="node3" class="node">
<title>b</title>
<ellipse fill="none" stroke="black" cx="261.25" cy="-29.47" rx="18" ry="18"/>
<text text-anchor="middle" x="261.25" y="-24.42" font-family="Times,serif" font-size="14.00">b</text>
</g>
<!-- a&#45;&gt;b -->
<g id="edge3" class="edge">
<title>a&#45;&gt;b</title>
<path fill="none" stroke="black" d="M101.16,-29.47C133.77,-29.47 195.91,-29.47 232.12,-29.47"/>
<polygon fill="black" stroke="black" points="231.9,-32.97 241.9,-29.47 231.9,-25.97 231.9,-32.97"/>
<text text-anchor="middle" x="172" y="-32.67" font-family="Times,serif" font-size="14.00">1, 2, 3, 4, 6, 7, 8, 9</text>
</g>
<!-- b&#45;&gt;a -->
<g id="edge4" class="edge">
<title>b&#45;&gt;a</title>
<path fill="none" stroke="black" d="M246.38,-19.05C240.24,-15.06 232.73,-10.99 225.25,-8.97 179.57,3.43 164.7,2.38 118.75,-8.97 114.88,-9.92 110.98,-11.33 107.21,-12.98"/>
<polygon fill="black" stroke="black" points="106.06,-10.14 98.66,-17.73 109.18,-16.41 106.06,-10.14"/>
<text text-anchor="middle" x="172" y="-11.67" font-family="Times,serif" font-size="14.00">0, 5</text>
</g>
<!-- b&#45;&gt;b -->
<g id="edge5" class="edge">
<title>b&#45;&gt;b</title>
<path fill="none" stroke="black" d="M247.72,-41.64C240.7,-53.07 245.21,-65.47 261.25,-65.47 272.4,-65.47 277.98,-59.47 277.98,-51.98"/>
<polygon fill="black" stroke="black" points="281.08,-51.15 274.78,-42.64 274.4,-53.23 281.08,-51.15"/>
<text text-anchor="middle" x="261.25" y="-68.67" font-family="Times,serif" font-size="14.00">1, 2, 3, 4, 6, 7, 8, 9</text>
</g>
</g>
</svg>
