<?xml version="1.0" encoding="UTF-8" standalone="no"?>
<!DOCTYPE svg PUBLIC "-//W3C//DTD SVG 1.1//EN"
 "http://www.w3.org/Graphics/SVG/1.1/DTD/svg11.dtd">
<!-- Generated by graphviz version 8.1.0 (20230707.0739)
 -->
<!-- Pages: 1 -->
<svg width="188pt" height="87pt"
 viewBox="0.00 0.00 187.50 86.50" xmlns="http://www.w3.org/2000/svg" xmlns:xlink="http://www.w3.org/1999/xlink">
<g id="graph0" class="graph" transform="scale(1 1) rotate(0) translate(4 82.5)">
<polygon fill="white" stroke="none" points="-4,4 -4,-82.5 183.5,-82.5 183.5,4 -4,4"/>
<!-- null -->
<g id="node1" class="node">
<title>null</title>
<text text-anchor="middle" x="9.88" y="-16.95" font-family="Times,serif" font-size="14.00"> </text>
</g>
<!-- a -->
<g id="node2" class="node">
<title>a</title>
<ellipse fill="none" stroke="black" cx="78.75" cy="-22" rx="18" ry="18"/>
<ellipse fill="none" stroke="black" cx="78.75" cy="-22" rx="22" ry="22"/>
<text text-anchor="middle" x="78.75" y="-16.95" font-family="Times,serif" font-size="14.00">a</text>
</g>
<!-- null&#45;&gt;a -->
<g id="edge1" class="edge">
<title>null&#45;&gt;a</title>
<path fill="none" stroke="black" d="M19.62,-22C26.28,-22 35.91,-22 45.42,-22"/>
<polygon fill="black" stroke="black" points="45.34,-25.5 55.34,-22 45.34,-18.5 45.34,-25.5"/>
</g>
<!-- a&#45;&gt;a -->
<g id="edge2" class="edge">
<title>a&#45;&gt;a</title>
<path fill="none" stroke="black" d="M71.34,-42.99C70.43,-53.09 72.9,-62 78.75,-62 82.32,-62 84.63,-58.69 85.68,-53.82"/>
<polygon fill="black" stroke="black" points="89.21,-54.14 86.16,-43.99 82.22,-53.83 89.21,-54.14"/>
<text text-anchor="middle" x="78.75" y="-65.2" font-family="Times,serif" font-size="14.00">0</text>
</g>
<!-- b -->
<g id="node3" class="node">
<title>b</title>
<ellipse fill="none" stroke="black" cx="161.5" cy="-22" rx="18" ry="18"/>
<text text-anchor="middle" x="161.5" y="-16.95" font-family="Times,serif" font-size="14.00">b</text>
</g>
<!-- a&#45;&gt;b -->
<g id="edge3" class="edge">
<title>a&#45;&gt;b</title>
<path fill="none" stroke="black" d="M100.97,-22C110.54,-22 121.99,-22 132.27,-22"/>
<polygon fill="black" stroke="black" points="132.23,-25.5 142.23,-22 132.23,-18.5 132.23,-25.5"/>
<text text-anchor="middle" x="122.12" y="-25.2" font-family="Times,serif" font-size="14.00">1</text>
</g>
<!-- b&#45;&gt;a -->
<g id="edge4" class="edge">
<title>b&#45;&gt;a</title>
<path fill="none" stroke="black" d="M146.63,-11.58C140.49,-7.6 132.98,-3.53 125.5,-1.5 118.89,0.29 112.01,-0.95 105.66,-3.55"/>
<polygon fill="black" stroke="black" points="104.47,-0.74 97.23,-8.47 107.72,-6.94 104.47,-0.74"/>
<text text-anchor="middle" x="122.12" y="-4.2" font-family="Times,serif" font-size="14.00">1</text>
</g>
<!-- b&#45;&gt;b -->
<g id="edge5" class="edge">
<title>b&#45;&gt;b</title>
<path fill="none" stroke="black" d="M154.52,-39.04C153.1,-48.86 155.42,-58 161.5,-58 165.2,-58 167.51,-54.61 168.43,-49.73"/>
<polygon fill="black" stroke="black" points="171.93,-50.05 168.48,-40.04 164.93,-50.02 171.93,-50.05"/>
<text text-anchor="middle" x="161.5" y="-61.2" font-family="Times,serif" font-size="14.00">0</text>
</g>
</g>
</svg>
