<?xml version="1.0" encoding="UTF-8" standalone="no"?>
<!DOCTYPE svg PUBLIC "-//W3C//DTD SVG 1.1//EN"
 "http://www.w3.org/Graphics/SVG/1.1/DTD/svg11.dtd">
<!-- Generated by graphviz version 8.1.0 (20230707.0739)
 -->
<!-- Pages: 1 -->
<svg width="281pt" height="83pt"
 viewBox="0.00 0.00 280.50 82.50" xmlns="http://www.w3.org/2000/svg" xmlns:xlink="http://www.w3.org/1999/xlink">
<g id="graph0" class="graph" transform="scale(1 1) rotate(0) translate(4 78.5)">
<polygon fill="white" stroke="none" points="-4,4 -4,-78.5 276.5,-78.5 276.5,4 -4,4"/>
<!-- null -->
<g id="node1" class="node">
<title>null</title>
<text text-anchor="middle" x="9.88" y="-16.95" font-family="Times,serif" font-size="14.00"> </text>
</g>
<!-- a -->
<g id="node2" class="node">
<title>a</title>
<ellipse fill="none" stroke="black" cx="74.75" cy="-22" rx="18" ry="18"/>
<text text-anchor="middle" x="74.75" y="-16.95" font-family="Times,serif" font-size="14.00">a</text>
</g>
<!-- null&#45;&gt;a -->
<g id="edge1" class="edge">
<title>null&#45;&gt;a</title>
<path fill="none" stroke="black" d="M19.62,-22C26.33,-22 36.01,-22 45.33,-22"/>
<polygon fill="black" stroke="black" points="45.3,-25.5 55.3,-22 45.3,-18.5 45.3,-25.5"/>
</g>
<!-- a&#45;&gt;a -->
<g id="edge2" class="edge">
<title>a&#45;&gt;a</title>
<path fill="none" stroke="black" d="M68.28,-39.04C66.96,-48.86 69.12,-58 74.75,-58 78.18,-58 80.32,-54.61 81.17,-49.73"/>
<polygon fill="black" stroke="black" points="84.68,-50.05 81.22,-40.04 77.68,-50.02 84.68,-50.05"/>
<text text-anchor="middle" x="74.75" y="-61.2" font-family="Times,serif" font-size="14.00">0, 1</text>
</g>
<!-- b -->
<g id="node4" class="node">
<title>b</title>
<ellipse fill="none" stroke="black" cx="153.5" cy="-22" rx="18" ry="18"/>
<text text-anchor="middle" x="153.5" y="-16.95" font-family="Times,serif" font-size="14.00">b</text>
</g>
<!-- a&#45;&gt;b -->
<g id="edge3" class="edge">
<title>a&#45;&gt;b</title>
<path fill="none" stroke="black" d="M93.17,-22C102.39,-22 113.94,-22 124.4,-22"/>
<polygon fill="black" stroke="black" points="124.15,-25.5 134.15,-22 124.15,-18.5 124.15,-25.5"/>
<text text-anchor="middle" x="114.12" y="-25.2" font-family="Times,serif" font-size="14.00">1</text>
</g>
<!-- c -->
<g id="node3" class="node">
<title>c</title>
<ellipse fill="none" stroke="black" cx="250.5" cy="-22" rx="18" ry="18"/>
<ellipse fill="none" stroke="black" cx="250.5" cy="-22" rx="22" ry="22"/>
<text text-anchor="middle" x="250.5" y="-16.95" font-family="Times,serif" font-size="14.00">c</text>
</g>
<!-- b&#45;&gt;c -->
<g id="edge4" class="edge">
<title>b&#45;&gt;c</title>
<path fill="none" stroke="black" d="M171.92,-22C184.68,-22 202.36,-22 217.62,-22"/>
<polygon fill="black" stroke="black" points="217.19,-25.5 227.19,-22 217.19,-18.5 217.19,-25.5"/>
<text text-anchor="middle" x="200" y="-25.2" font-family="Times,serif" font-size="14.00">0, 1</text>
</g>
</g>
</svg>
