<?xml version="1.0" encoding="UTF-8" standalone="no"?>
<!DOCTYPE svg PUBLIC "-//W3C//DTD SVG 1.1//EN"
 "http://www.w3.org/Graphics/SVG/1.1/DTD/svg11.dtd">
<!-- Generated by graphviz version 8.1.0 (20230707.0739)
 -->
<!-- Pages: 1 -->
<svg width="272pt" height="191pt"
 viewBox="0.00 0.00 272.15 190.72" xmlns="http://www.w3.org/2000/svg" xmlns:xlink="http://www.w3.org/1999/xlink">
<g id="graph0" class="graph" transform="scale(1 1) rotate(0) translate(4 186.72)">
<polygon fill="white" stroke="none" points="-4,4 -4,-186.72 268.15,-186.72 268.15,4 -4,4"/>
<!-- null -->
<g id="node1" class="node">
<title>null</title>
<text text-anchor="middle" x="9.88" y="-67.06" font-family="Times,serif" font-size="14.00"> </text>
</g>
<!-- s0 -->
<g id="node2" class="node">
<title>s0</title>
<ellipse fill="none" stroke="black" cx="75.86" cy="-72.11" rx="19.11" ry="19.11"/>
<text text-anchor="middle" x="75.86" y="-67.06" font-family="Times,serif" font-size="14.00">s0</text>
</g>
<!-- null&#45;&gt;s0 -->
<g id="edge1" class="edge">
<title>null&#45;&gt;s0</title>
<path fill="none" stroke="black" d="M19.5,-72.11C26.27,-72.11 36.1,-72.11 45.61,-72.11"/>
<polygon fill="black" stroke="black" points="45.42,-75.61 55.42,-72.11 45.42,-68.61 45.42,-75.61"/>
</g>
<!-- s3 -->
<g id="node3" class="node">
<title>s3</title>
<ellipse fill="none" stroke="black" cx="160.07" cy="-122.11" rx="19.11" ry="19.11"/>
<ellipse fill="none" stroke="black" cx="160.07" cy="-122.11" rx="23.11" ry="23.11"/>
<text text-anchor="middle" x="160.07" y="-117.06" font-family="Times,serif" font-size="14.00">s3</text>
</g>
<!-- s0&#45;&gt;s3 -->
<g id="edge6" class="edge">
<title>s0&#45;&gt;s3</title>
<path fill="none" stroke="black" d="M92.71,-81.75C103.42,-88.26 117.86,-97.04 130.54,-104.75"/>
<polygon fill="black" stroke="black" points="128.43,-108.18 138.8,-110.38 132.07,-102.2 128.43,-108.18"/>
<text text-anchor="middle" x="115.97" y="-100.31" font-family="Times,serif" font-size="14.00">ε</text>
</g>
<!-- s1 -->
<g id="node5" class="node">
<title>s1</title>
<ellipse fill="none" stroke="black" cx="160.07" cy="-23.11" rx="19.11" ry="19.11"/>
<ellipse fill="none" stroke="black" cx="160.07" cy="-23.11" rx="23.11" ry="23.11"/>
<text text-anchor="middle" x="160.07" y="-18.06" font-family="Times,serif" font-size="14.00">s1</text>
</g>
<!-- s0&#45;&gt;s1 -->
<g id="edge7" class="edge">
<title>s0&#45;&gt;s1</title>
<path fill="none" stroke="black" d="M92.71,-62.66C103.42,-56.28 117.86,-47.67 130.54,-40.11"/>
<polygon fill="black" stroke="black" points="132,-42.72 138.8,-34.6 128.41,-36.71 132,-42.72"/>
<text text-anchor="middle" x="115.97" y="-54.31" font-family="Times,serif" font-size="14.00">ε</text>
</g>
<!-- s3&#45;&gt;s3 -->
<g id="edge2" class="edge">
<title>s3&#45;&gt;s3</title>
<path fill="none" stroke="black" d="M151.97,-144.1C151.08,-154.3 153.78,-163.22 160.07,-163.22 163.9,-163.22 166.41,-159.91 167.57,-155.01"/>
<polygon fill="black" stroke="black" points="171.12,-155.28 168.18,-145.1 164.13,-154.89 171.12,-155.28"/>
<text text-anchor="middle" x="160.07" y="-166.42" font-family="Times,serif" font-size="14.00">0</text>
</g>
<!-- s4 -->
<g id="node4" class="node">
<title>s4</title>
<ellipse fill="none" stroke="black" cx="245.04" cy="-129.11" rx="19.11" ry="19.11"/>
<text text-anchor="middle" x="245.04" y="-124.06" font-family="Times,serif" font-size="14.00">s4</text>
</g>
<!-- s3&#45;&gt;s4 -->
<g id="edge3" class="edge">
<title>s3&#45;&gt;s4</title>
<path fill="none" stroke="black" d="M183.31,-123.98C193.03,-124.8 204.58,-125.78 214.98,-126.66"/>
<polygon fill="black" stroke="black" points="214.41,-130.2 224.67,-127.56 215,-123.23 214.41,-130.2"/>
<text text-anchor="middle" x="204.56" y="-128.31" font-family="Times,serif" font-size="14.00">1</text>
</g>
<!-- s4&#45;&gt;s3 -->
<g id="edge10" class="edge">
<title>s4&#45;&gt;s3</title>
<path fill="none" stroke="black" d="M229.97,-116.68C223.68,-111.92 215.9,-107.05 207.93,-104.61 201.87,-102.74 195.45,-103.37 189.38,-105.21"/>
<polygon fill="black" stroke="black" points="188.51,-102.2 180.6,-109.24 191.17,-108.67 188.51,-102.2"/>
<text text-anchor="middle" x="204.56" y="-107.31" font-family="Times,serif" font-size="14.00">1</text>
</g>
<!-- s4&#45;&gt;s4 -->
<g id="edge11" class="edge">
<title>s4&#45;&gt;s4</title>
<path fill="none" stroke="black" d="M237.81,-147.05C236.46,-157.03 238.87,-166.22 245.04,-166.22 248.8,-166.22 251.16,-162.8 252.13,-157.88"/>
<polygon fill="black" stroke="black" points="255.64,-158.1 252.26,-148.05 248.64,-158.01 255.64,-158.1"/>
<text text-anchor="middle" x="245.04" y="-169.42" font-family="Times,serif" font-size="14.00">0</text>
</g>
<!-- s1&#45;&gt;s1 -->
<g id="edge4" class="edge">
<title>s1&#45;&gt;s1</title>
<path fill="none" stroke="black" d="M151.97,-45.1C151.08,-55.3 153.78,-64.22 160.07,-64.22 163.9,-64.22 166.41,-60.91 167.57,-56.01"/>
<polygon fill="black" stroke="black" points="171.12,-56.28 168.18,-46.1 164.13,-55.89 171.12,-56.28"/>
<text text-anchor="middle" x="160.07" y="-67.42" font-family="Times,serif" font-size="14.00">1</text>
</g>
<!-- s2 -->
<g id="node6" class="node">
<title>s2</title>
<ellipse fill="none" stroke="black" cx="245.04" cy="-30.11" rx="19.11" ry="19.11"/>
<text text-anchor="middle" x="245.04" y="-25.06" font-family="Times,serif" font-size="14.00">s2</text>
</g>
<!-- s1&#45;&gt;s2 -->
<g id="edge5" class="edge">
<title>s1&#45;&gt;s2</title>
<path fill="none" stroke="black" d="M183.02,-28.29C188.89,-29.46 195.24,-30.52 201.18,-31.11 204.17,-31.4 204.93,-31.15 207.93,-31.11 210.18,-31.08 212.52,-31.03 214.86,-30.98"/>
<polygon fill="black" stroke="black" points="214.76,-34.46 224.67,-30.71 214.59,-27.47 214.76,-34.46"/>
<text text-anchor="middle" x="204.56" y="-35.31" font-family="Times,serif" font-size="14.00">0</text>
</g>
<!-- s2&#45;&gt;s1 -->
<g id="edge8" class="edge">
<title>s2&#45;&gt;s1</title>
<path fill="none" stroke="black" d="M228.56,-19.57C222.42,-15.98 215.11,-12.42 207.93,-10.61 202.56,-9.25 196.85,-9.42 191.34,-10.41"/>
<polygon fill="black" stroke="black" points="190.85,-7.19 182.11,-13.17 192.67,-13.95 190.85,-7.19"/>
<text text-anchor="middle" x="204.56" y="-14.31" font-family="Times,serif" font-size="14.00">0</text>
</g>
<!-- s2&#45;&gt;s2 -->
<g id="edge9" class="edge">
<title>s2&#45;&gt;s2</title>
<path fill="none" stroke="black" d="M237.81,-48.05C236.46,-58.03 238.87,-67.22 245.04,-67.22 248.8,-67.22 251.16,-63.8 252.13,-58.88"/>
<polygon fill="black" stroke="black" points="255.64,-59.1 252.26,-49.05 248.64,-59.01 255.64,-59.1"/>
<text text-anchor="middle" x="245.04" y="-70.42" font-family="Times,serif" font-size="14.00">1</text>
</g>
</g>
</svg>
