<?xml version="1.0" encoding="UTF-8" standalone="no"?>
<!DOCTYPE svg PUBLIC "-//W3C//DTD SVG 1.1//EN"
 "http://www.w3.org/Graphics/SVG/1.1/DTD/svg11.dtd">
<!-- Generated by graphviz version 8.1.0 (20230707.0739)
 -->
<!-- Pages: 1 -->
<svg width="266pt" height="81pt"
 viewBox="0.00 0.00 266.25 81.00" xmlns="http://www.w3.org/2000/svg" xmlns:xlink="http://www.w3.org/1999/xlink">
<g id="graph0" class="graph" transform="scale(1 1) rotate(0) translate(4 77)">
<polygon fill="white" stroke="none" points="-4,4 -4,-77 262.25,-77 262.25,4 -4,4"/>
<!-- null -->
<g id="node1" class="node">
<title>null</title>
<text text-anchor="middle" x="9.88" y="-29.95" font-family="Times,serif" font-size="14.00"> </text>
</g>
<!-- a -->
<g id="node2" class="node">
<title>a</title>
<ellipse fill="none" stroke="black" cx="78.75" cy="-35" rx="18" ry="18"/>
<ellipse fill="none" stroke="black" cx="78.75" cy="-35" rx="22" ry="22"/>
<text text-anchor="middle" x="78.75" y="-29.95" font-family="Times,serif" font-size="14.00">a</text>
</g>
<!-- null&#45;&gt;a -->
<g id="edge1" class="edge">
<title>null&#45;&gt;a</title>
<path fill="none" stroke="black" d="M19.62,-35C26.28,-35 35.91,-35 45.42,-35"/>
<polygon fill="black" stroke="black" points="45.34,-38.5 55.34,-35 45.34,-31.5 45.34,-38.5"/>
</g>
<!-- b -->
<g id="node3" class="node">
<title>b</title>
<ellipse fill="none" stroke="black" cx="161.5" cy="-55" rx="18" ry="18"/>
<text text-anchor="middle" x="161.5" y="-49.95" font-family="Times,serif" font-size="14.00">b</text>
</g>
<!-- a&#45;&gt;b -->
<g id="edge2" class="edge">
<title>a&#45;&gt;b</title>
<path fill="none" stroke="black" d="M98.26,-45.31C104.57,-48.34 111.8,-51.3 118.75,-53 123.07,-54.06 127.71,-54.72 132.27,-55.12"/>
<polygon fill="black" stroke="black" points="132.07,-58.67 142.22,-55.65 132.4,-51.67 132.07,-58.67"/>
<text text-anchor="middle" x="122.12" y="-57.2" font-family="Times,serif" font-size="14.00">1</text>
</g>
<!-- b&#45;&gt;a -->
<g id="edge3" class="edge">
<title>b&#45;&gt;a</title>
<path fill="none" stroke="black" d="M147.1,-43.82C140.93,-39.37 133.26,-34.78 125.5,-32.5 121.04,-31.19 116.22,-30.61 111.45,-30.49"/>
<polygon fill="black" stroke="black" points="111.44,-27.03 101.59,-30.94 111.72,-34.02 111.44,-27.03"/>
<text text-anchor="middle" x="122.12" y="-35.2" font-family="Times,serif" font-size="14.00">0</text>
</g>
<!-- c -->
<g id="node4" class="node">
<title>c</title>
<ellipse fill="none" stroke="black" cx="240.25" cy="-18" rx="18" ry="18"/>
<text text-anchor="middle" x="240.25" y="-12.95" font-family="Times,serif" font-size="14.00">c</text>
</g>
<!-- b&#45;&gt;c -->
<g id="edge4" class="edge">
<title>b&#45;&gt;c</title>
<path fill="none" stroke="black" d="M178.03,-47.51C188.26,-42.58 201.9,-36.01 213.71,-30.31"/>
<polygon fill="black" stroke="black" points="214.99,-33.1 222.48,-25.6 211.95,-26.79 214.99,-33.1"/>
<text text-anchor="middle" x="200.88" y="-40.2" font-family="Times,serif" font-size="14.00">0</text>
</g>
<!-- c&#45;&gt;a -->
<g id="edge5" class="edge">
<title>c&#45;&gt;a</title>
<path fill="none" stroke="black" d="M222.16,-14.35C202.9,-10.82 170.73,-6.64 143.5,-11.5 131.92,-13.57 119.68,-17.59 109.06,-21.73"/>
<polygon fill="black" stroke="black" points="107.98,-18.81 100.06,-25.85 110.64,-25.28 107.98,-18.81"/>
<text text-anchor="middle" x="161.5" y="-14.2" font-family="Times,serif" font-size="14.00">1</text>
</g>
</g>
</svg>
